<mxfile host="Electron" modified="2023-08-23T10:24:22.414Z" agent="Mozilla/5.0 (Windows NT 10.0; Win64; x64) AppleWebKit/537.36 (KHTML, like Gecko) draw.io/21.6.5 Chrome/114.0.5735.243 Electron/25.3.1 Safari/537.36" etag="S8mufKJtio9W9PYEvMjH" version="21.6.5" type="device">
  <diagram name="PÃ¡gina-1" id="mNZQhTuing3IUGzDXDOb">
    <mxGraphModel dx="2369" dy="1171" grid="1" gridSize="10" guides="1" tooltips="1" connect="1" arrows="1" fold="1" page="1" pageScale="1" pageWidth="827" pageHeight="1169" math="0" shadow="0">
      <root>
        <mxCell id="0" />
        <mxCell id="1" parent="0" />
        <mxCell id="oTkKGgDJzFW5Q6fEU7TT-73" value="&lt;b&gt;&lt;font style=&quot;font-size: 18px;&quot;&gt;Raspberry Pi 0&lt;/font&gt;&lt;/b&gt;" style="whiteSpace=wrap;html=1;aspect=fixed;strokeWidth=3;" parent="1" vertex="1">
          <mxGeometry x="700.3299999999999" y="267.5" width="277" height="277" as="geometry" />
        </mxCell>
        <mxCell id="oTkKGgDJzFW5Q6fEU7TT-80" value="&lt;span style=&quot;font-size: 17px;&quot;&gt;&lt;b&gt;USB&lt;/b&gt;&lt;/span&gt;" style="rounded=1;whiteSpace=wrap;html=1;rotation=0;strokeWidth=3;fillColor=#e1d5e7;strokeColor=#9673a6;" parent="1" vertex="1">
          <mxGeometry x="714.3299999999999" y="280" width="249" height="60" as="geometry" />
        </mxCell>
        <mxCell id="oTkKGgDJzFW5Q6fEU7TT-83" value="&lt;span style=&quot;font-size: 15px;&quot;&gt;&lt;b&gt;Lead-acid battery&lt;br&gt;&lt;/b&gt;&lt;/span&gt;" style="rounded=1;whiteSpace=wrap;html=1;strokeWidth=3;rotation=0;fillColor=#ffe6cc;strokeColor=#d79b00;" parent="1" vertex="1">
          <mxGeometry x="762.1599999999999" y="1011.87" width="140.14" height="55" as="geometry" />
        </mxCell>
        <mxCell id="oTkKGgDJzFW5Q6fEU7TT-84" value="&lt;span style=&quot;font-size: 15px;&quot;&gt;&lt;b&gt;ST link&lt;br&gt;&lt;/b&gt;&lt;/span&gt;" style="rounded=1;whiteSpace=wrap;html=1;strokeWidth=3;rotation=0;fillColor=#f8cecc;strokeColor=#b85450;" parent="1" vertex="1">
          <mxGeometry x="550" y="550" width="100" height="55" as="geometry" />
        </mxCell>
        <mxCell id="oTkKGgDJzFW5Q6fEU7TT-133" value="&lt;b&gt;&lt;font style=&quot;font-size: 18px;&quot;&gt;EPC&lt;/font&gt;&lt;/b&gt;" style="whiteSpace=wrap;html=1;aspect=fixed;strokeWidth=3;" parent="1" vertex="1">
          <mxGeometry x="713.1599999999999" y="630" width="261.87" height="261.87" as="geometry" />
        </mxCell>
        <mxCell id="oTkKGgDJzFW5Q6fEU7TT-137" value="&lt;font size=&quot;1&quot; style=&quot;&quot;&gt;&lt;b style=&quot;font-size: 17px;&quot;&gt;JTAG&lt;/b&gt;&lt;/font&gt;" style="rounded=1;whiteSpace=wrap;html=1;rotation=-90;strokeWidth=3;fillColor=#f8cecc;strokeColor=#b85450;" parent="1" vertex="1">
          <mxGeometry x="694.21" y="736.28" width="118.23" height="60" as="geometry" />
        </mxCell>
        <mxCell id="oTkKGgDJzFW5Q6fEU7TT-146" value="&lt;b&gt;&lt;font style=&quot;font-size: 17px;&quot;&gt;CAN&lt;/font&gt;&lt;/b&gt;" style="rounded=1;whiteSpace=wrap;html=1;rotation=0;strokeWidth=3;fillColor=#dae8fc;strokeColor=#6c8ebf;" parent="1" vertex="1">
          <mxGeometry x="763.1599999999999" y="640" width="150" height="60" as="geometry" />
        </mxCell>
        <mxCell id="oTkKGgDJzFW5Q6fEU7TT-147" value="" style="endArrow=block;html=1;rounded=0;strokeWidth=3;entryX=0.5;entryY=1;entryDx=0;entryDy=0;startArrow=block;startFill=1;endFill=1;endSize=3;startSize=3;fillColor=#f8cecc;strokeColor=#6C8EBF;exitX=0.5;exitY=0;exitDx=0;exitDy=0;" parent="1" source="oTkKGgDJzFW5Q6fEU7TT-146" target="oTkKGgDJzFW5Q6fEU7TT-218" edge="1">
          <mxGeometry width="50" height="50" relative="1" as="geometry">
            <mxPoint x="859.4299999999998" y="690.13" as="sourcePoint" />
            <mxPoint x="845.9099999999999" y="640" as="targetPoint" />
          </mxGeometry>
        </mxCell>
        <mxCell id="oTkKGgDJzFW5Q6fEU7TT-148" style="edgeStyle=orthogonalEdgeStyle;rounded=0;orthogonalLoop=1;jettySize=auto;html=1;endSize=3;startSize=3;strokeWidth=3;fillColor=#d5e8d4;strokeColor=#9673A6;endArrow=block;endFill=1;exitX=0.5;exitY=0;exitDx=0;exitDy=0;" parent="1" source="oTkKGgDJzFW5Q6fEU7TT-80" target="oTkKGgDJzFW5Q6fEU7TT-84" edge="1">
          <mxGeometry relative="1" as="geometry">
            <mxPoint x="370" y="668.13" as="targetPoint" />
            <mxPoint x="370" y="608.13" as="sourcePoint" />
            <Array as="points">
              <mxPoint x="839" y="200" />
              <mxPoint x="600" y="200" />
            </Array>
          </mxGeometry>
        </mxCell>
        <mxCell id="oTkKGgDJzFW5Q6fEU7TT-149" style="edgeStyle=orthogonalEdgeStyle;rounded=0;orthogonalLoop=1;jettySize=auto;html=1;endSize=3;startSize=3;strokeWidth=3;fillColor=#d5e8d4;strokeColor=#B85450;endArrow=block;endFill=1;exitX=0.5;exitY=1;exitDx=0;exitDy=0;entryX=0.471;entryY=0.006;entryDx=0;entryDy=0;entryPerimeter=0;" parent="1" source="oTkKGgDJzFW5Q6fEU7TT-84" target="oTkKGgDJzFW5Q6fEU7TT-137" edge="1">
          <mxGeometry relative="1" as="geometry">
            <mxPoint x="680" y="770" as="targetPoint" />
            <mxPoint x="550" y="640" as="sourcePoint" />
            <Array as="points">
              <mxPoint x="600" y="770" />
              <mxPoint x="680" y="770" />
            </Array>
          </mxGeometry>
        </mxCell>
        <mxCell id="oTkKGgDJzFW5Q6fEU7TT-150" value="&lt;b&gt;&lt;font style=&quot;font-size: 17px;&quot;&gt;HS_V+&lt;/font&gt;&lt;/b&gt;" style="rounded=1;whiteSpace=wrap;html=1;rotation=0;strokeWidth=3;fillColor=#d5e8d4;strokeColor=#82b366;" parent="1" vertex="1">
          <mxGeometry x="753.3" y="830.0000000000001" width="79.84" height="50.81" as="geometry" />
        </mxCell>
        <mxCell id="oTkKGgDJzFW5Q6fEU7TT-154" value="&lt;b style=&quot;border-color: var(--border-color);&quot;&gt;&lt;font style=&quot;border-color: var(--border-color); font-size: 17px;&quot;&gt;HS_V-&lt;/font&gt;&lt;/b&gt;" style="rounded=1;whiteSpace=wrap;html=1;rotation=0;strokeWidth=3;fillColor=#d5e8d4;strokeColor=#82b366;" parent="1" vertex="1">
          <mxGeometry x="833.1399999999999" y="830.81" width="79.84" height="50" as="geometry" />
        </mxCell>
        <mxCell id="oTkKGgDJzFW5Q6fEU7TT-155" value="&lt;b&gt;&lt;font style=&quot;font-size: 17px;&quot;&gt;LS_V+&lt;/font&gt;&lt;/b&gt;" style="rounded=1;whiteSpace=wrap;html=1;rotation=-90;strokeWidth=3;fillColor=#d5e8d4;strokeColor=#82b366;" parent="1" vertex="1">
          <mxGeometry x="903.2999999999997" y="791.61" width="80.16" height="48.39" as="geometry" />
        </mxCell>
        <mxCell id="oTkKGgDJzFW5Q6fEU7TT-156" value="&lt;b&gt;&lt;font style=&quot;font-size: 17px;&quot;&gt;LS_V-&lt;/font&gt;&lt;/b&gt;" style="rounded=1;whiteSpace=wrap;html=1;rotation=-90;strokeWidth=3;fillColor=#d5e8d4;strokeColor=#82b366;" parent="1" vertex="1">
          <mxGeometry x="903.2999999999997" y="711.61" width="80.16" height="48.39" as="geometry" />
        </mxCell>
        <mxCell id="oTkKGgDJzFW5Q6fEU7TT-164" style="edgeStyle=orthogonalEdgeStyle;rounded=0;orthogonalLoop=1;jettySize=auto;html=1;endSize=3;startSize=3;strokeWidth=3;fillColor=#d5e8d4;strokeColor=#B85450;endArrow=block;endFill=1;exitX=0.25;exitY=0;exitDx=0;exitDy=0;entryX=0.5;entryY=1;entryDx=0;entryDy=0;" parent="1" source="oTkKGgDJzFW5Q6fEU7TT-83" target="oTkKGgDJzFW5Q6fEU7TT-150" edge="1">
          <mxGeometry relative="1" as="geometry">
            <mxPoint x="790" y="880" as="targetPoint" />
            <mxPoint x="803.56" y="991.87" as="sourcePoint" />
            <Array as="points">
              <mxPoint x="793" y="1012" />
              <mxPoint x="793" y="946" />
            </Array>
          </mxGeometry>
        </mxCell>
        <mxCell id="oTkKGgDJzFW5Q6fEU7TT-165" style="edgeStyle=orthogonalEdgeStyle;rounded=0;orthogonalLoop=1;jettySize=auto;html=1;endSize=3;startSize=3;strokeWidth=3;fillColor=#d5e8d4;strokeColor=#330033;endArrow=block;endFill=1;exitX=0.5;exitY=1;exitDx=0;exitDy=0;" parent="1" source="oTkKGgDJzFW5Q6fEU7TT-154" edge="1">
          <mxGeometry relative="1" as="geometry">
            <mxPoint x="873" y="1010" as="targetPoint" />
            <mxPoint x="814.06" y="1001.87" as="sourcePoint" />
          </mxGeometry>
        </mxCell>
        <mxCell id="oTkKGgDJzFW5Q6fEU7TT-166" value="&lt;span style=&quot;font-size: 15px;&quot;&gt;&lt;b&gt;Battery to be cycled&lt;br&gt;&lt;/b&gt;&lt;/span&gt;" style="rounded=1;whiteSpace=wrap;html=1;strokeWidth=3;rotation=-90;fillColor=#ffe6cc;strokeColor=#d79b00;" parent="1" vertex="1">
          <mxGeometry x="1200" y="753" width="140" height="55" as="geometry" />
        </mxCell>
        <mxCell id="oTkKGgDJzFW5Q6fEU7TT-167" style="edgeStyle=orthogonalEdgeStyle;rounded=0;orthogonalLoop=1;jettySize=auto;html=1;endSize=3;startSize=3;strokeWidth=3;fillColor=#d5e8d4;strokeColor=#B85450;endArrow=block;endFill=1;exitX=0.25;exitY=0;exitDx=0;exitDy=0;entryX=0.5;entryY=1;entryDx=0;entryDy=0;" parent="1" source="oTkKGgDJzFW5Q6fEU7TT-166" target="oTkKGgDJzFW5Q6fEU7TT-155" edge="1">
          <mxGeometry relative="1" as="geometry">
            <mxPoint x="1080.16" y="742" as="targetPoint" />
            <mxPoint x="1081.16" y="830" as="sourcePoint" />
          </mxGeometry>
        </mxCell>
        <mxCell id="oTkKGgDJzFW5Q6fEU7TT-168" style="edgeStyle=orthogonalEdgeStyle;rounded=0;orthogonalLoop=1;jettySize=auto;html=1;endSize=3;startSize=3;strokeWidth=3;fillColor=#d5e8d4;strokeColor=#330033;endArrow=block;endFill=1;exitX=0.5;exitY=1;exitDx=0;exitDy=0;entryX=0.75;entryY=0;entryDx=0;entryDy=0;" parent="1" target="oTkKGgDJzFW5Q6fEU7TT-166" edge="1">
          <mxGeometry relative="1" as="geometry">
            <mxPoint x="1160" y="771.87" as="targetPoint" />
            <mxPoint x="997.2749999999996" y="735.805" as="sourcePoint" />
            <Array as="points">
              <mxPoint x="1207" y="736" />
              <mxPoint x="1207" y="746" />
            </Array>
          </mxGeometry>
        </mxCell>
        <mxCell id="oTkKGgDJzFW5Q6fEU7TT-172" value="" style="endArrow=block;html=1;rounded=0;strokeWidth=3;entryX=0.5;entryY=0;entryDx=0;entryDy=0;startArrow=block;startFill=1;endFill=1;endSize=3;startSize=3;fillColor=#f8cecc;strokeColor=#9673A6;exitX=0.5;exitY=0;exitDx=0;exitDy=0;" parent="1" source="oTkKGgDJzFW5Q6fEU7TT-184" target="oTkKGgDJzFW5Q6fEU7TT-80" edge="1">
          <mxGeometry width="50" height="50" relative="1" as="geometry">
            <mxPoint x="1070" y="386" as="sourcePoint" />
            <mxPoint x="1054" y="238" as="targetPoint" />
            <Array as="points">
              <mxPoint x="1096" y="200" />
              <mxPoint x="839" y="200" />
            </Array>
          </mxGeometry>
        </mxCell>
        <mxCell id="oTkKGgDJzFW5Q6fEU7TT-173" value="" style="endArrow=block;html=1;rounded=0;strokeWidth=3;entryX=0.5;entryY=0;entryDx=0;entryDy=0;startArrow=block;startFill=1;endFill=1;endSize=3;startSize=3;fillColor=#f8cecc;strokeColor=#9673A6;exitX=0.5;exitY=0;exitDx=0;exitDy=0;" parent="1" source="oTkKGgDJzFW5Q6fEU7TT-193" target="oTkKGgDJzFW5Q6fEU7TT-80" edge="1">
          <mxGeometry width="50" height="50" relative="1" as="geometry">
            <mxPoint x="1214" y="386" as="sourcePoint" />
            <mxPoint x="849" y="290" as="targetPoint" />
            <Array as="points">
              <mxPoint x="1425" y="200" />
              <mxPoint x="839" y="200" />
            </Array>
          </mxGeometry>
        </mxCell>
        <mxCell id="oTkKGgDJzFW5Q6fEU7TT-183" value="" style="rounded=1;whiteSpace=wrap;html=1;strokeWidth=3;rotation=0;fillColor=none;strokeColor=#9673a6;dashed=1;" parent="1" vertex="1">
          <mxGeometry x="1000" y="340.5" width="190" height="102" as="geometry" />
        </mxCell>
        <mxCell id="oTkKGgDJzFW5Q6fEU7TT-184" value="" style="rounded=1;whiteSpace=wrap;html=1;strokeWidth=3;rotation=0;fillColor=#e1d5e7;strokeColor=#9673a6;dashed=1;opacity=35;" parent="1" vertex="1">
          <mxGeometry x="1000" y="340" width="190" height="102.5" as="geometry" />
        </mxCell>
        <mxCell id="oTkKGgDJzFW5Q6fEU7TT-185" value="&lt;font style=&quot;font-size: 15px;&quot;&gt;&lt;b&gt;V-&lt;br&gt;&lt;/b&gt;&lt;/font&gt;" style="rounded=1;whiteSpace=wrap;html=1;rotation=0;strokeWidth=3;fillColor=#e1d5e7;strokeColor=#9673a6;" parent="1" vertex="1">
          <mxGeometry x="1093" y="392.5" width="80" height="40" as="geometry" />
        </mxCell>
        <mxCell id="oTkKGgDJzFW5Q6fEU7TT-186" value="&lt;font style=&quot;font-size: 15px;&quot;&gt;&lt;b&gt;V+&lt;br&gt;&lt;/b&gt;&lt;/font&gt;" style="rounded=1;whiteSpace=wrap;html=1;rotation=0;strokeWidth=3;fillColor=#e1d5e7;strokeColor=#9673a6;" parent="1" vertex="1">
          <mxGeometry x="1018" y="392.5" width="75" height="40" as="geometry" />
        </mxCell>
        <mxCell id="oTkKGgDJzFW5Q6fEU7TT-187" value="&lt;font style=&quot;&quot; color=&quot;#b195bd&quot;&gt;&lt;b style=&quot;&quot;&gt;&lt;span style=&quot;font-size: 18px;&quot;&gt;POWER SUPPLY&lt;/span&gt;&lt;br&gt;&lt;font style=&quot;font-size: 10px;&quot;&gt;(EA-PS 2384-05 B)&lt;/font&gt;&lt;br&gt;&lt;/b&gt;&lt;/font&gt;" style="text;html=1;strokeColor=none;fillColor=none;align=center;verticalAlign=middle;whiteSpace=wrap;rounded=0;" parent="1" vertex="1">
          <mxGeometry x="1190" y="350" width="114.84" height="80" as="geometry" />
        </mxCell>
        <mxCell id="oTkKGgDJzFW5Q6fEU7TT-190" value="&lt;font style=&quot;font-size: 15px;&quot;&gt;&lt;b&gt;Serial&lt;br&gt;&lt;/b&gt;&lt;/font&gt;" style="rounded=1;whiteSpace=wrap;html=1;rotation=0;strokeWidth=3;fillColor=#e1d5e7;strokeColor=#9673a6;" parent="1" vertex="1">
          <mxGeometry x="1018" y="352.5" width="155" height="30" as="geometry" />
        </mxCell>
        <mxCell id="oTkKGgDJzFW5Q6fEU7TT-192" value="" style="rounded=1;whiteSpace=wrap;html=1;strokeWidth=3;rotation=0;fillColor=none;strokeColor=#9673a6;dashed=1;" parent="1" vertex="1">
          <mxGeometry x="1330" y="341" width="190" height="102" as="geometry" />
        </mxCell>
        <mxCell id="oTkKGgDJzFW5Q6fEU7TT-193" value="" style="rounded=1;whiteSpace=wrap;html=1;strokeWidth=3;rotation=0;fillColor=#e1d5e7;strokeColor=#9673a6;dashed=1;opacity=35;" parent="1" vertex="1">
          <mxGeometry x="1330" y="340.5" width="190" height="102.5" as="geometry" />
        </mxCell>
        <mxCell id="oTkKGgDJzFW5Q6fEU7TT-194" value="&lt;font style=&quot;font-size: 15px;&quot;&gt;&lt;b&gt;V-&lt;br&gt;&lt;/b&gt;&lt;/font&gt;" style="rounded=1;whiteSpace=wrap;html=1;rotation=0;strokeWidth=3;fillColor=#e1d5e7;strokeColor=#9673a6;" parent="1" vertex="1">
          <mxGeometry x="1423" y="393" width="80" height="40" as="geometry" />
        </mxCell>
        <mxCell id="oTkKGgDJzFW5Q6fEU7TT-195" value="&lt;font style=&quot;font-size: 15px;&quot;&gt;&lt;b&gt;V+&lt;br&gt;&lt;/b&gt;&lt;/font&gt;" style="rounded=1;whiteSpace=wrap;html=1;rotation=0;strokeWidth=3;fillColor=#e1d5e7;strokeColor=#9673a6;" parent="1" vertex="1">
          <mxGeometry x="1348" y="393" width="75" height="40" as="geometry" />
        </mxCell>
        <mxCell id="oTkKGgDJzFW5Q6fEU7TT-196" value="&lt;font style=&quot;&quot; color=&quot;#b195bd&quot;&gt;&lt;b style=&quot;&quot;&gt;&lt;span style=&quot;font-size: 18px;&quot;&gt;MULTIMETER&lt;/span&gt;&lt;br&gt;&lt;font style=&quot;font-size: 10px;&quot;&gt;(BK PRECISION 2831E)&lt;/font&gt;&lt;br&gt;&lt;/b&gt;&lt;/font&gt;" style="text;html=1;strokeColor=none;fillColor=none;align=center;verticalAlign=middle;whiteSpace=wrap;rounded=0;" parent="1" vertex="1">
          <mxGeometry x="1530" y="353" width="114.84" height="80" as="geometry" />
        </mxCell>
        <mxCell id="oTkKGgDJzFW5Q6fEU7TT-197" value="&lt;font style=&quot;font-size: 15px;&quot;&gt;&lt;b&gt;Serial&lt;br&gt;&lt;/b&gt;&lt;/font&gt;" style="rounded=1;whiteSpace=wrap;html=1;rotation=0;strokeWidth=3;fillColor=#e1d5e7;strokeColor=#9673a6;" parent="1" vertex="1">
          <mxGeometry x="1348" y="353" width="155" height="30" as="geometry" />
        </mxCell>
        <mxCell id="oTkKGgDJzFW5Q6fEU7TT-198" style="edgeStyle=orthogonalEdgeStyle;rounded=0;orthogonalLoop=1;jettySize=auto;html=1;endSize=3;startSize=3;strokeWidth=3;fillColor=#d5e8d4;strokeColor=#B85450;endArrow=block;endFill=1;exitX=0.5;exitY=1;exitDx=0;exitDy=0;entryX=0.5;entryY=1;entryDx=0;entryDy=0;" parent="1" source="oTkKGgDJzFW5Q6fEU7TT-186" target="oTkKGgDJzFW5Q6fEU7TT-155" edge="1">
          <mxGeometry relative="1" as="geometry">
            <mxPoint x="1055" y="854" as="targetPoint" />
            <mxPoint x="1060.5" y="436.5" as="sourcePoint" />
          </mxGeometry>
        </mxCell>
        <mxCell id="oTkKGgDJzFW5Q6fEU7TT-199" style="edgeStyle=orthogonalEdgeStyle;rounded=0;orthogonalLoop=1;jettySize=auto;html=1;endSize=3;startSize=3;strokeWidth=3;fillColor=#d5e8d4;strokeColor=#330033;endArrow=block;endFill=1;entryX=0.5;entryY=1;entryDx=0;entryDy=0;exitX=0.5;exitY=1;exitDx=0;exitDy=0;" parent="1" source="oTkKGgDJzFW5Q6fEU7TT-156" target="oTkKGgDJzFW5Q6fEU7TT-185" edge="1">
          <mxGeometry relative="1" as="geometry">
            <mxPoint x="1150" y="660" as="targetPoint" />
            <mxPoint x="1131" y="780" as="sourcePoint" />
          </mxGeometry>
        </mxCell>
        <mxCell id="oTkKGgDJzFW5Q6fEU7TT-200" style="edgeStyle=orthogonalEdgeStyle;rounded=0;orthogonalLoop=1;jettySize=auto;html=1;endSize=3;startSize=3;strokeWidth=3;fillColor=#d5e8d4;strokeColor=#B85450;endArrow=block;endFill=1;exitX=0.5;exitY=1;exitDx=0;exitDy=0;entryX=0.5;entryY=1;entryDx=0;entryDy=0;" parent="1" source="oTkKGgDJzFW5Q6fEU7TT-195" target="oTkKGgDJzFW5Q6fEU7TT-155" edge="1">
          <mxGeometry relative="1" as="geometry">
            <mxPoint x="990.2750000000001" y="853.935" as="targetPoint" />
            <mxPoint x="1341.5" y="433" as="sourcePoint" />
            <Array as="points">
              <mxPoint x="1386" y="550" />
              <mxPoint x="1056" y="550" />
              <mxPoint x="1056" y="816" />
            </Array>
          </mxGeometry>
        </mxCell>
        <mxCell id="oTkKGgDJzFW5Q6fEU7TT-202" style="edgeStyle=orthogonalEdgeStyle;rounded=0;orthogonalLoop=1;jettySize=auto;html=1;endSize=3;startSize=3;strokeWidth=3;fillColor=#d5e8d4;strokeColor=#330033;endArrow=block;endFill=1;exitX=0.5;exitY=1;exitDx=0;exitDy=0;entryX=0.5;entryY=1;entryDx=0;entryDy=0;" parent="1" source="oTkKGgDJzFW5Q6fEU7TT-185" target="oTkKGgDJzFW5Q6fEU7TT-194" edge="1">
          <mxGeometry relative="1" as="geometry">
            <mxPoint x="1480" y="490" as="targetPoint" />
            <mxPoint x="1126" y="432.5" as="sourcePoint" />
            <Array as="points">
              <mxPoint x="1133" y="590" />
              <mxPoint x="1463" y="590" />
            </Array>
          </mxGeometry>
        </mxCell>
        <mxCell id="oTkKGgDJzFW5Q6fEU7TT-203" value="&lt;b&gt;&lt;font style=&quot;font-size: 16px;&quot;&gt;SCPI&lt;/font&gt;&lt;/b&gt;" style="text;html=1;strokeColor=none;fillColor=none;align=center;verticalAlign=middle;whiteSpace=wrap;rounded=0;" parent="1" vertex="1">
          <mxGeometry x="1040" y="210" width="60" height="30" as="geometry" />
        </mxCell>
        <mxCell id="oTkKGgDJzFW5Q6fEU7TT-204" value="&lt;b&gt;&lt;font style=&quot;font-size: 16px;&quot;&gt;SCPI&lt;/font&gt;&lt;/b&gt;" style="text;html=1;strokeColor=none;fillColor=none;align=center;verticalAlign=middle;whiteSpace=wrap;rounded=0;" parent="1" vertex="1">
          <mxGeometry x="1363" y="210" width="60" height="30" as="geometry" />
        </mxCell>
        <mxCell id="oTkKGgDJzFW5Q6fEU7TT-211" value="&lt;font style=&quot;font-size: 16px;&quot;&gt;&lt;b&gt;[ 0.5 -- 5]V&lt;/b&gt;&lt;/font&gt;" style="text;html=1;strokeColor=none;fillColor=none;align=center;verticalAlign=middle;whiteSpace=wrap;rounded=0;" parent="1" vertex="1">
          <mxGeometry x="1070" y="840.0000000000001" width="93" height="30" as="geometry" />
        </mxCell>
        <mxCell id="oTkKGgDJzFW5Q6fEU7TT-215" value="&lt;b style=&quot;border-color: var(--border-color); color: rgb(0, 0, 0); font-family: Helvetica; font-size: 16px; font-style: normal; font-variant-ligatures: normal; font-variant-caps: normal; letter-spacing: normal; orphans: 2; text-align: center; text-indent: 0px; text-transform: none; widows: 2; word-spacing: 0px; -webkit-text-stroke-width: 0px; background-color: rgb(251, 251, 251); text-decoration-thickness: initial; text-decoration-style: initial; text-decoration-color: initial;&quot;&gt;[ 5 -- 14 ]V&lt;/b&gt;" style="text;whiteSpace=wrap;html=1;" parent="1" vertex="1">
          <mxGeometry x="692.4399999999999" y="931.87" width="120" height="40" as="geometry" />
        </mxCell>
        <mxCell id="oTkKGgDJzFW5Q6fEU7TT-218" value="&lt;span style=&quot;font-size: 17px;&quot;&gt;&lt;b&gt;CAN&lt;/b&gt;&lt;/span&gt;" style="rounded=1;whiteSpace=wrap;html=1;rotation=0;strokeWidth=3;fillColor=#DAE8FC;strokeColor=#6C8EBF;" parent="1" vertex="1">
          <mxGeometry x="714.3299999999999" y="470" width="249" height="60" as="geometry" />
        </mxCell>
        <mxCell id="5dhVFjvPSFcUcMlmSx5A-1" value="" style="rounded=1;whiteSpace=wrap;html=1;strokeWidth=3;rotation=0;fillColor=none;strokeColor=#9673a6;dashed=1;" vertex="1" parent="1">
          <mxGeometry x="1680" y="341" width="190" height="102" as="geometry" />
        </mxCell>
        <mxCell id="5dhVFjvPSFcUcMlmSx5A-2" value="" style="rounded=1;whiteSpace=wrap;html=1;strokeWidth=3;rotation=0;fillColor=#e1d5e7;strokeColor=#9673a6;dashed=1;opacity=35;" vertex="1" parent="1">
          <mxGeometry x="1680" y="340.5" width="190" height="102.5" as="geometry" />
        </mxCell>
        <mxCell id="5dhVFjvPSFcUcMlmSx5A-3" value="&lt;font style=&quot;font-size: 15px;&quot;&gt;&lt;b&gt;V-&lt;br&gt;&lt;/b&gt;&lt;/font&gt;" style="rounded=1;whiteSpace=wrap;html=1;rotation=0;strokeWidth=3;fillColor=#e1d5e7;strokeColor=#9673a6;" vertex="1" parent="1">
          <mxGeometry x="1773" y="393" width="80" height="40" as="geometry" />
        </mxCell>
        <mxCell id="5dhVFjvPSFcUcMlmSx5A-4" value="&lt;font style=&quot;font-size: 15px;&quot;&gt;&lt;b&gt;V+&lt;br&gt;&lt;/b&gt;&lt;/font&gt;" style="rounded=1;whiteSpace=wrap;html=1;rotation=0;strokeWidth=3;fillColor=#e1d5e7;strokeColor=#9673a6;" vertex="1" parent="1">
          <mxGeometry x="1698" y="393" width="75" height="40" as="geometry" />
        </mxCell>
        <mxCell id="5dhVFjvPSFcUcMlmSx5A-5" value="&lt;font style=&quot;font-size: 15px;&quot;&gt;&lt;b&gt;Serial&lt;br&gt;&lt;/b&gt;&lt;/font&gt;" style="rounded=1;whiteSpace=wrap;html=1;rotation=0;strokeWidth=3;fillColor=#e1d5e7;strokeColor=#9673a6;" vertex="1" parent="1">
          <mxGeometry x="1698" y="353" width="155" height="30" as="geometry" />
        </mxCell>
        <mxCell id="5dhVFjvPSFcUcMlmSx5A-6" value="&lt;b&gt;&lt;font style=&quot;font-size: 16px;&quot;&gt;SCPI&lt;/font&gt;&lt;/b&gt;" style="text;html=1;strokeColor=none;fillColor=none;align=center;verticalAlign=middle;whiteSpace=wrap;rounded=0;" vertex="1" parent="1">
          <mxGeometry x="1713" y="210" width="60" height="30" as="geometry" />
        </mxCell>
        <mxCell id="5dhVFjvPSFcUcMlmSx5A-7" value="&lt;font style=&quot;&quot; color=&quot;#b195bd&quot;&gt;&lt;b style=&quot;&quot;&gt;&lt;span style=&quot;font-size: 18px;&quot;&gt;MULTIMETER&lt;/span&gt;&lt;br&gt;&lt;font style=&quot;font-size: 10px;&quot;&gt;(BK PRECISION 2831E)&lt;/font&gt;&lt;br&gt;&lt;/b&gt;&lt;/font&gt;" style="text;html=1;strokeColor=none;fillColor=none;align=center;verticalAlign=middle;whiteSpace=wrap;rounded=0;" vertex="1" parent="1">
          <mxGeometry x="1880" y="352" width="114.84" height="80" as="geometry" />
        </mxCell>
        <mxCell id="5dhVFjvPSFcUcMlmSx5A-8" value="" style="endArrow=block;html=1;rounded=0;strokeWidth=3;entryX=0.5;entryY=0;entryDx=0;entryDy=0;startArrow=block;startFill=1;endFill=1;endSize=3;startSize=3;fillColor=#f8cecc;strokeColor=#9673A6;exitX=0.5;exitY=0;exitDx=0;exitDy=0;" edge="1" parent="1" source="5dhVFjvPSFcUcMlmSx5A-1" target="oTkKGgDJzFW5Q6fEU7TT-80">
          <mxGeometry width="50" height="50" relative="1" as="geometry">
            <mxPoint x="1773" y="340" as="sourcePoint" />
            <mxPoint x="1187" y="279" as="targetPoint" />
            <Array as="points">
              <mxPoint x="1775" y="200" />
              <mxPoint x="1187" y="199" />
              <mxPoint x="840" y="200" />
            </Array>
          </mxGeometry>
        </mxCell>
        <mxCell id="5dhVFjvPSFcUcMlmSx5A-9" style="edgeStyle=orthogonalEdgeStyle;rounded=0;orthogonalLoop=1;jettySize=auto;html=1;endSize=3;startSize=3;strokeWidth=3;fillColor=#d5e8d4;strokeColor=#B85450;endArrow=block;endFill=1;exitX=0.5;exitY=1;exitDx=0;exitDy=0;entryX=0.5;entryY=1;entryDx=0;entryDy=0;" edge="1" parent="1" source="5dhVFjvPSFcUcMlmSx5A-4" target="oTkKGgDJzFW5Q6fEU7TT-150">
          <mxGeometry relative="1" as="geometry">
            <mxPoint x="800" y="920" as="targetPoint" />
            <mxPoint x="1396" y="443" as="sourcePoint" />
            <Array as="points">
              <mxPoint x="1736" y="940" />
              <mxPoint x="793" y="940" />
            </Array>
          </mxGeometry>
        </mxCell>
        <mxCell id="5dhVFjvPSFcUcMlmSx5A-11" style="edgeStyle=orthogonalEdgeStyle;rounded=0;orthogonalLoop=1;jettySize=auto;html=1;endSize=3;startSize=3;strokeWidth=3;fillColor=#d5e8d4;strokeColor=#330033;endArrow=block;endFill=1;exitX=0.5;exitY=1;exitDx=0;exitDy=0;entryX=0.5;entryY=1;entryDx=0;entryDy=0;" edge="1" parent="1" source="oTkKGgDJzFW5Q6fEU7TT-154" target="5dhVFjvPSFcUcMlmSx5A-3">
          <mxGeometry relative="1" as="geometry">
            <mxPoint x="1090" y="980" as="targetPoint" />
            <mxPoint x="860" y="910" as="sourcePoint" />
            <Array as="points">
              <mxPoint x="873" y="970" />
              <mxPoint x="1813" y="970" />
            </Array>
          </mxGeometry>
        </mxCell>
      </root>
    </mxGraphModel>
  </diagram>
</mxfile>
